<svg id="circle" xmlns="http://www.w3.org/2000/svg" viewBox="0 0 360 360"><defs><style>.cls-1{fill:#fff;}.cls-2,.cls-3{fill:none;stroke:#231f20;stroke-miterlimit:10;}.cls-2{stroke-width:20px;}.cls-3{stroke-width:10px;}.cls-4{fill:#231f20;}</style></defs><title>space-dashboard-logo</title><circle class="cls-1" cx="180" cy="180" r="171"/><rect class="cls-2" x="38.42" y="38.42" width="283.16" height="283.16" rx="141.58" ry="141.58"/><path class="cls-3" d="M38.42,192.15A129.43,129.43,0,0,1,167.85,321.58"/><path class="cls-3" d="M237.37,313.48A218.59,218.59,0,0,0,46.52,122.63"/><circle class="cls-4" cx="216.83" cy="244.67" r="25.25"/><circle class="cls-4" cx="106.13" cy="211.84" r="25.25"/><path class="cls-4" d="M232.51,84.23l3.39,23.53a19.77,19.77,0,0,0,16.75,16.75l23.53,3.39a2.11,2.11,0,0,1,0,4.19l-23.53,3.39a19.77,19.77,0,0,0-16.75,16.75l-3.39,23.53a2.11,2.11,0,0,1-4.19,0l-3.39-23.53a19.77,19.77,0,0,0-16.75-16.75l-23.53-3.39a2.11,2.11,0,0,1,0-4.19l23.53-3.39a19.77,19.77,0,0,0,16.75-16.75l3.39-23.53A2.11,2.11,0,0,1,232.51,84.23Z"/></svg>